<svg id="filled_outline" height="512" viewBox="0 0 512 512" width="512" xmlns="http://www.w3.org/2000/svg" data-name="filled outline"><path d="m352 352 17.71656 7.08662a56 56 0 0 1 31.19682 31.19682l7.08662 17.71656v80h-144v-80l7.08662-17.71656a56 56 0 0 1 31.19682-31.19682l17.71656-7.08662z" fill="#517ef7"/><path d="m360 320v24a24 24 0 0 1 -24 24 24 24 0 0 1 -24-24v-24z" fill="#f5c99d"/><path d="m312 320h48v-13.57781a18.42218 18.42218 0 0 0 -18.42219-18.42219 18.42223 18.42223 0 0 0 -10.21879 3.094l-19.35902 12.906z" fill="#b1792c"/><path d="m192 440h24v48h-24z" fill="#f5c99d"/><path d="m296 440h24v48h-24z" fill="#f5c99d"/><path d="m272 384 17.71656 7.08662a56 56 0 0 1 31.19682 31.19682l7.08662 17.71656-32 16v32h-80v-32l-32-16 7.08662-17.71656a56 56 0 0 1 31.19682-31.19682l17.71656-7.08662z" fill="#548aff"/><path d="m280 352v24a24 24 0 0 1 -24 24 24 24 0 0 1 -24-24v-24z" fill="#f5c99d"/><path d="m232 352h48v-13.57781a18.42218 18.42218 0 0 0 -18.42219-18.42219 18.42223 18.42223 0 0 0 -10.21879 3.094l-19.35902 12.906z" fill="#b1792c"/><path d="m352 440h24v48h-24z" fill="#f5c99d"/><path d="m456 440h24v48h-24z" fill="#f5c99d"/><path d="m432 384 17.71656 7.08662a56 56 0 0 1 31.19682 31.19682l7.08662 17.71656-32 16v32h-80v-32l-32-16 7.08662-17.71656a56 56 0 0 1 31.19682-31.19682l17.71656-7.08662z" fill="#548aff"/><path d="m234.51 200 24 24v32l-48 40 8 24 80-48v-64l-40-32h-24z" fill="#f6bb00"/><path d="m255.931 314.57864-33.9411 33.94113a16 16 0 0 1 -22.62742 0l-5.65685-5.65686 45.25483-45.25483z" fill="#f5c99d"/><path d="m261.58788 241.03954 7.5165 17.5385a56 56 0 0 1 0 44.119l-7.5165 17.5385-33.94113-11.31371-16.97056 16.97056-56.56854-56.56854 16.97056-16.97056-11.31371-33.94117 17.5385-7.5165a56 56 0 0 1 44.119 0l17.5385 7.5165z" fill="#517ef7"/><path d="m24 365.49033 16.97056-16.97056a8 8 0 0 1 11.31371 0l79.196 79.196a8 8 0 0 1 0 11.31371l-16.9706 16.97052z" fill="#f6bb00"/><path d="m210.676 325.892-90.509 90.51-16.971-16.971 50.912-73.539-73.539 50.912-16.971-16.971 90.51-90.509z" fill="#4d6378"/><path d="m289.87215 224.069-16.97058 16.97058a24 24 0 0 1 -33.94109 0 24 24 0 0 1 0-33.94109l16.97052-16.97064z" fill="#f5c99d"/><path d="m255.931 190.12785 33.94115 33.94115 9.601-9.601a18.42216 18.42216 0 0 0 0-26.0529 18.42225 18.42225 0 0 0 -9.41357-5.038l-22.8148-4.563z" fill="#b1792c"/><path d="m154.51 144 16-32h48l16 32z" fill="#f6bb00"/><path d="m178.51 24h32v88h-32z" fill="#eda600"/><path d="m154.51 200-32 24v32l56 40-8 24-80-48v-64l40-32h24z" fill="#f6bb00"/><path d="m256 144v40l-32 32h-64l-32-32v-40z" fill="#fcd453"/><path d="m440 352v24a24 24 0 0 1 -24 24 24 24 0 0 1 -24-24v-24z" fill="#f5c99d"/><path d="m392 352h48v-13.57781a18.42218 18.42218 0 0 0 -18.42219-18.42219 18.42223 18.42223 0 0 0 -10.21879 3.094l-19.35902 12.906z" fill="#b1792c"/><path d="m108.85254 461.65674a8.00062 8.00062 0 0 0 11.31445 0l16.97071-16.97074a16.01779 16.01779 0 0 0 0-22.627l-5.657-5.657 62.2251-62.22559.00024.00025a24.0296 24.0296 0 0 0 30.29396 2.98606v18.83728a32.022 32.022 0 0 0 .49805 5.58459l-5.18555 2.0741a64.28172 64.28172 0 0 0 -35.65332 35.65331l-7.08691 17.7168a8.00051 8.00051 0 0 0 3.84961 10.12646l3.57812 1.78908v39.05566a8.00008 8.00008 0 0 0 8 8h288a8.00008 8.00008 0 0 0 8-8v-39.05566l3.57812-1.78907a8.00051 8.00051 0 0 0 3.84961-10.12646l-7.08691-17.71631a64.28107 64.28107 0 0 0 -35.65332-35.65381l-5.18555-2.0741a31.99871 31.99871 0 0 0 .49805-5.58459v-37.57764a26.42138 26.42138 0 0 0 -41.07812-21.98436l-19.35938 12.90575a7.99943 7.99943 0 0 0 -3.5625 6.65625v21.5686a63.93494 63.93494 0 0 0 -11.3125-5.90991l-5.18555-2.0741a31.99871 31.99871 0 0 0 .49805-5.58459v-37.57764a26.42138 26.42138 0 0 0 -41.07812-21.98436l-19.35938 12.90575a7.99943 7.99943 0 0 0 -3.5625 6.65625v40a31.996 31.996 0 0 0 .498 5.58435l-5.18653 2.07434a63.93343 63.93343 0 0 0 -11.31147 5.90967v-19.146a26.45234 26.45234 0 0 0 -15.24512-23.9342l3.70313-8.64a63.57693 63.57693 0 0 0 4.104-13.75l22.064-13.23828a8.00072 8.00072 0 0 0 3.88376-6.85988v-53.37555a26.41779 26.41779 0 0 0 -14.88086-43.09222l-22.81446-4.563a7.99284 7.99284 0 0 0 -2.30468-.10767v-26.86156a8.00009 8.00009 0 0 0 -8-8h-19.05591l-13.78886-27.57764a7.99869 7.99869 0 0 0 -7.15523-4.42236v-80a8.00009 8.00009 0 0 0 -8-8h-32a8.00008 8.00008 0 0 0 -8 8v80a7.99869 7.99869 0 0 0 -7.15528 4.42236l-13.78882 27.57764h-19.0559a8.00008 8.00008 0 0 0 -8 8v28.15448l-36.99805 29.59845a8.00055 8.00055 0 0 0 -3.00195 6.24707v64a8.00073 8.00073 0 0 0 3.88378 6.85986l29.29 17.5741-52.08565 52.08533-5.65649-5.6565a16.019 16.019 0 0 0 -22.62793 0l-16.97071 16.97071a8 8 0 0 0 0 11.31347zm4.72168-63.16113 47.11035-68.04932a7.98419 7.98419 0 0 0 1.22827-6.2749l4.48071 2.68847a8.00088 8.00088 0 0 0 11.70606-4.33007l4.47485-13.42469 16.78736 16.78748-79.19482 79.1958zm-20.57031-20.57032 29.48144-20.41015-20.41015 29.48156zm135.35864-137.60223-29.00025 29.00067 11.31446 11.31348 28.9956-28.996a31.80357 31.80357 0 0 0 16.25928 4.42761 32.559 32.559 0 0 0 3.31934-.17218l2.5 5.83282a48.20763 48.20763 0 0 1 0 37.81592l-4.61719 10.77295-26.958-8.98584a7.99949 7.99949 0 0 0 -8.18652 1.93262l-11.31348 11.31347-45.25489-45.25485 11.31445-11.314a8.00041 8.00041 0 0 0 1.93262-8.18653l-8.60791-25.8232h53.88745a32.00652 32.00652 0 0 0 4.41504 16.32306zm43.63745 135.67694a16 16 0 0 1 -32 0v-16h32zm-32-34.17651 4.62524-4.62525 11.17261-7.44824a10.42171 10.42171 0 0 1 16.20215 8.67236v5.57764h-32zm-89.80737-126.82666 3.24682 9.7398-22.92968 22.93024v-19.66687l18.67773-14.00836zm8.90381 26.71075 2.82836 8.4848-13.4746 13.47462a8.08662 8.08662 0 0 0 -.564.62769l-6.6362-4.74025zm45.92309 101.15521 11.31347-11.31347 13.47461-13.47461 8.4851 2.82824-21.95871 21.95935a8.00918 8.00918 0 0 1 -11.31447.00049zm-5.01953 114.08155 8 4v19.05566h-8zm92.42188-8.09961a7.99967 7.99967 0 0 0 -4.42188 7.15527v24h-64v-24a7.99967 7.99967 0 0 0 -4.42188-7.15527l-25.416-12.708 4.35254-10.88233a48.21492 48.21492 0 0 1 26.73926-26.74023l5.91064-2.36414a32.06484 32.06484 0 0 0 16.83544 10.83727v41.0127h16v-41.0127a32.06388 32.06388 0 0 0 16.83545-10.8373l5.91064 2.36414a48.21492 48.21492 0 0 1 26.73926 26.74023l4.35254 10.88233zm43.57812-8.83765a8.0009 8.0009 0 0 0 4.42188 7.14819l3.57812 1.78907v31.05566h-16v-31.05566l3.57812-1.78907a8.0009 8.0009 0 0 0 4.42188-7.14819zm-32 39.99292v-19.05566l8-4v23.05566zm56-23.05566 8 4v19.05566h-8zm112 23.05566h-8v-19.05566l8-4zm-25.25391-81.48584a48.21492 48.21492 0 0 1 26.73926 26.74023l4.35254 10.88233-25.416 12.708a7.99967 7.99967 0 0 0 -4.42189 7.15528v24h-64v-24a7.99967 7.99967 0 0 0 -4.42188-7.15527l-25.416-12.708 4.35254-10.88233a48.21492 48.21492 0 0 1 26.73926-26.74023l5.91064-2.36414a32.06388 32.06388 0 0 0 16.83544 10.83727v41.0127h16v-41.0127a32.06388 32.06388 0 0 0 16.83545-10.8373zm-30.74609-6.51416a16.01833 16.01833 0 0 1 -16-16v-16h32v16a16.01833 16.01833 0 0 1 -16 16zm-16-51.71826 15.79785-10.53174a10.42171 10.42171 0 0 1 16.20215 8.67236v5.57764h-32zm-64 19.71826a16.01833 16.01833 0 0 1 -16-16v-16h32v16a16.01833 16.01833 0 0 1 -16 16zm-16-51.71826 15.79785-10.53174a10.42171 10.42171 0 0 1 16.20215 8.67236v5.57764h-32zm-14.74609 58.23242 5.91064-2.36414a32.06388 32.06388 0 0 0 16.83545 10.83728v33.0127h16v-33.0127a32.06562 32.06562 0 0 0 16.83545-10.83715l5.90967 2.364a48.15925 48.15925 0 0 1 17.35791 11.9314q.12084 1.59264.395 3.139l-5.18555 2.0741a64.28172 64.28172 0 0 0 -35.6533 35.65335l-7.08691 17.7168a7.98592 7.98592 0 0 0 -.57227 2.92555 7.98592 7.98592 0 0 0 -.57227-2.92554l-7.08691-17.71631a64.28107 64.28107 0 0 0 -35.65332-35.65381l-5.18555-2.0741q.27319-1.54559.395-3.139a48.164 48.164 0 0 1 17.35696-11.93143zm-24.10743-93.42578a63.74983 63.74983 0 0 0 -4.68847-17.66162l-2.19824-5.1286a32.33923 32.33923 0 0 0 4.29882-3.60187l11.95118-11.95117v32.72558zm-11.27248-85.59033 18.61621 3.72363a10.42209 10.42209 0 0 1 5.3252 17.58936l-3.94336 3.94384-22.62793-22.627zm8.68409 36.57086-11.314 11.3139a15.99984 15.99984 0 1 1 -22.627-22.62744l11.31347-11.31354zm-92.04832-192.06891h16v72h-16zm-11.05567 88h38.11133l8 16h-54.11133zm-36.94433 32h112v28.68652l-27.31348 27.31348h-57.37305l-27.31347-27.31348zm-40 59.84521 26.96191-21.56933 12.28732 12.28741-20.049 15.03681a7.99926 7.99926 0 0 0 -3.20023 6.3999v32a8.00134 8.00134 0 0 0 3.34961 6.50977l51.19238 36.56591-2.97754 8.93311-67.56445-40.53809zm31.3164 93.07422 22.12354 13.27417a7.97545 7.97545 0 0 0 -2.396 1.12134l-68.04932 47.11084-6.59277-6.59278zm-83.19917 49.25684 79.19629 79.19629-11.31347 11.314-79.19634-79.19633z"/></svg>