<svg id="_x33_0" enable-background="new 0 0 64 64" height="512" viewBox="0 0 64 64" width="512" xmlns="http://www.w3.org/2000/svg" xmlns:xlink="http://www.w3.org/1999/xlink"><linearGradient id="SVGID_1_" gradientUnits="userSpaceOnUse" x1="32" x2="32" y1="63" y2="1"><stop offset="0" stop-color="#9f2fff"/><stop offset="1" stop-color="#0bb1d3"/></linearGradient><path d="m15 1c-3.86 0-7 3.141-7 7v48c0 3.859 3.14 7 7 7h41v-50h-2v-4h-2v-4h-2v-4zm39 60h-39c-2.757 0-5-2.243-5-5v-43.105c1.271 1.298 3.043 2.105 5 2.105h39zm-2-48h-37c-2.757 0-5-2.243-5-5s2.243-5 5-5h33v2h-33c-1.654 0-3 1.346-3 3s1.346 3 3 3h37zm-2-6v2h-35c-.551 0-1-.448-1-1s.449-1 1-1zm-24.707 44.293 12-12 1.414 1.414-12 12zm2.707-6.293c1.654 0 3-1.346 3-3s-1.346-3-3-3-3 1.346-3 3 1.346 3 3 3zm0-4c.551 0 1 .448 1 1s-.449 1-1 1-1-.448-1-1 .449-1 1-1zm8 6c-1.654 0-3 1.346-3 3s1.346 3 3 3 3-1.346 3-3-1.346-3-3-3zm0 4c-.551 0-1-.448-1-1s.449-1 1-1 1 .448 1 1-.449 1-1 1zm-15 6h22c2.757 0 5-2.243 5-5v-12c0-2.757-2.243-5-5-5h-22c-2.757 0-5 2.243-5 5v12c0 2.757 2.243 5 5 5zm-3-17c0-1.654 1.346-3 3-3h22c1.654 0 3 1.346 3 3v12c0 1.654-1.346 3-3 3h-22c-1.654 0-3-1.346-3-3zm24-9h-2v-2.333l2.75-3.667-2.75-3.667v-2.333h2v1.667l2 2.667 2-2.667v-1.667h2v2.333l-2.75 3.667 2.75 3.667v2.333h-2v-1.667l-2-2.667-2 2.667zm-12-2h4v2h2v-3l-2.219-9h-3.562l-2.189 8.758-.03 3.242h2zm2.219-8 1.5 6h-3.438l1.5-6zm-12.219 0h-4v-2h10v2h-4v10h-2z" fill="url(#SVGID_1_)"/></svg>